<?xml version="1.0" encoding="UTF-8" standalone="no"?>
<svg width="1280px" height="424px" viewBox="0 0 1280 424" version="1.1" xmlns="http://www.w3.org/2000/svg" xmlns:xlink="http://www.w3.org/1999/xlink">
    <!-- Generator: Sketch 39.1 (31720) - http://www.bohemiancoding.com/sketch -->
    <title>Supercrop Copy 4</title>
    <desc>Created with Sketch.</desc>
    <defs>
        <rect id="path-1" x="0" y="0" width="1282" height="813"></rect>
        <linearGradient x1="29.9437291%" y1="48.3645442%" x2="25.0128425%" y2="57.202442%" id="linearGradient-3">
            <stop stop-color="#FFB91D" offset="0%"></stop>
            <stop stop-color="#F6682F" offset="100%"></stop>
        </linearGradient>
    </defs>
    <g id="Page-1" stroke="none" stroke-width="1" fill="none" fill-rule="evenodd">
        <g id="Supercrop2" transform="translate(0.000000, -390.000000)">
            <g id="Supercrop-Copy-4" transform="translate(-2.000000, 1.000000)">
                <mask id="mask-2" fill="white">
                    <use xlink:href="#path-1"></use>
                </mask>
                <g id="Mask"></g>
                <g id="Page-1" mask="url(#mask-2)">
                    <g transform="translate(-6747.000000, -1999.000000)" id="Group-5">
                        <g>
                            <path d="M24177.9748,3684.37883 C24177.9748,3142.23479 24605.4128,2670.37418 25034.9323,2670.37418 C25172.8523,2670.37418 25306.4112,2751.41326 25306.4112,2924.89143 C25306.4112,3201.1678 24866.881,3749.75532 24276.6449,4127.5412 C24210.9309,3999.71257 24177.9748,3849.18309 24177.9748,3684.37883 M15723.1273,4538.33749 C15423.7472,4538.33749 15241.0268,4332.09674 15163.2702,4025.53604 C15478.0628,3683.1397 15774.0234,3269.02254 16028.4543,2838.10278 C16255.0336,2903.03318 16454.1082,3108.13394 16454.1082,3601.75366 C16454.1082,4090.21861 16169.1495,4538.33749 15723.1273,4538.33749 M16401.428,430.622371 C16746.3519,430.622371 16050.1607,2303.6909 15123.6238,3506.39024 C15191.9643,2384.82912 16047.6828,430.622371 16401.428,430.622371 M7666.82536,2710.62111 C8134.55404,2710.62111 8093.2722,3490.23199 7174.36722,3490.23199 C7044.72342,3490.23199 6922.56287,3480.41808 6807.43957,3463.66504 C6975.14394,3047.86266 7338.35474,2710.62111 7666.82536,2710.62111 M26890.2362,3143.27566 C26811.3398,3083.20264 26709.7459,3083.84699 26647.7983,3202.50606 C26380.0363,3715.35708 25926.9768,4539.37836 25059.7113,4539.37836 C24843.4401,4539.37836 24669.3427,4491.15143 24534.1484,4407.48539 C24656.6559,4327.43761 24773.7615,4241.39244 24885.1679,4151.62988 C25331.1902,3792.28225 25740.0439,3321.41295 25740.0439,2912.50013 C25740.0439,2565.5438 25448.5932,2324.31002 25020.4118,2324.31002 C24341.1199,2324.31002 23746.4235,2914.03665 23746.4235,3707.07969 C23746.4235,3926.80218 23800.0949,4142.41076 23906.942,4329.8663 C23641.9552,4450.85493 23361.0107,4527.48272 23084.576,4527.48272 C22480.0672,4527.48272 22298.4866,4085.60905 22435.1181,3512.98241 C22492.6054,3272.19471 22562.1353,3014.15834 22633.9449,2763.30891 L23148.5555,2763.30891 C23393.5208,2763.30891 23480.6438,2675.97504 23556.4676,2508.89079 C23603.9938,2404.10998 23583.8236,2347.55609 23443.8718,2347.55609 L22756.6506,2347.55609 C22897.7918,1882.13896 23025.8002,1499.59482 23063.9103,1390.94793 C23125.8579,1214.34716 23104.1515,1158.58632 22927.6258,1158.58632 C22747.9779,1158.58632 22663.1346,1228.07671 22580.7196,1455.97746 C22528.2376,1601.1539 22413.1639,1968.58065 22289.3184,2347.55609 L21911.5871,2347.55609 C21707.4575,2347.55609 21608.391,2426.36475 21544.1638,2514.64035 C21410.0102,2698.97329 21443.9575,2763.30891 21601.9485,2763.30891 L22150.6054,2763.30891 C22126.1238,2834.63322 22102.0881,2903.33057 22078.9445,2967.76532 C21752.258,3875.94829 21193.0947,4513.5549 20771.8515,4513.5549 C20511.6718,4513.5549 20350.6082,4350.78281 20350.6082,4047.84037 C20350.6082,3663.71015 20616.834,3062.4844 20722.2935,2728.16719 C20813.0342,2440.58996 20666.5407,2394.34563 20511.5727,2394.34563 C20346.7923,2394.34563 20283.7049,2443.26648 20198.812,2692.03417 C19840.4083,3742.12228 19226.2357,4494.96795 18764.7513,4494.96795 C18597.493,4494.96795 18513.839,4376.20976 18513.839,4227.51419 C18513.839,3837.18832 19068.2942,3062.73222 19068.2942,2684.79765 C19068.2942,2467.94994 18966.7003,2362.62391 18777.1408,2362.62391 C18526.2285,2362.62391 18285.0791,2570.84728 17914.3851,2614.41508 C17962.4564,2324.16132 17858.6819,2057.00495 17597.0155,2057.00495 C17297.8832,2057.00495 17183.9493,2523.21513 17408.3481,2798.45063 C17357.0059,2892.67405 17256.8492,2974.45662 17063.2755,2974.45662 C16753.9838,2974.45662 16596.1415,2566.03945 16220.3925,2495.11167 C16876.7886,1255.73409 17146.9294,0 16500.5441,0 C15673.6684,0 14679.2865,2290.11004 14679.2865,3674.06928 C14679.2865,3781.92313 14688.5043,3884.82046 14705.8496,3982.1665 C14386.6959,4293.58459 14055.5987,4493.92708 13740.8061,4493.92708 C13427.9463,4493.92708 13263.8101,4314.25327 13263.8101,3905.34045 C13263.8101,3614.69018 13360.4978,3191.20519 13479.3875,2763.30891 L13980.3201,2763.30891 C14225.2854,2763.30891 14312.4084,2675.97504 14388.2322,2508.89079 C14435.7583,2404.10998 14415.5882,2347.55609 14275.6363,2347.55609 L13600.3091,2347.55609 C13717.5138,1958.27109 13832.984,1601.50085 13886.358,1381.62967 C13929.3744,1204.63238 13861.579,1124.53503 13706.7102,1124.53503 C13496.0885,1124.53503 13432.9021,1276.5019 13350.5366,1548.91219 C13274.8615,1799.46422 13198.6413,2076.23624 13119.5466,2347.55609 L12693.7936,2347.55609 C12489.6641,2347.55609 12390.5976,2426.36475 12326.3704,2514.64035 C12192.2168,2698.97329 12229.2862,2763.30891 12408.9341,2763.30891 L12992.9754,2763.30891 C12977.0673,2812.62627 12961.0105,2861.39842 12944.7555,2908.88187 C12672.1863,3705.04752 12176.606,4498.09056 11671.7584,4498.09056 C11479.721,4498.09056 11392.9945,4381.31497 11392.9945,4240.94635 C11392.9945,3899.04567 11699.61,3446.76331 11699.61,2952.25141 C11699.61,2608.41769 11486.5105,2363.81348 11151.3,2363.81348 C10705.9715,2363.81348 10358.0246,2735.45327 10113.7035,3146.79478 C10130.5532,3050.48962 10141.6542,2944.12272 10141.6542,2825.76105 C10141.6542,2569.65771 10001.2563,2382.10303 9761.69281,2382.10303 C9001.81955,2382.10303 8506.23926,4544.53314 7335.43082,4544.53314 C6921.37348,4544.53314 6712.83329,4295.66632 6712.83329,3923.9274 C6712.83329,3881.30133 6715.75722,3838.52658 6720.76258,3795.90051 C6884.70054,3823.16137 7054.53591,3838.22918 7226.99785,3838.22918 C8687.96855,3838.22918 8704.47137,2388.24912 7665.93331,2388.24912 C7001.70705,2388.24912 6550.33252,2824.37322 6361.0704,3354.77032 C6095.48892,3261.88515 5889.12929,3136.33653 5743.32957,3027.68963 C5755.22349,2940.55403 5761.61648,2858.07755 5761.61648,2783.08542 C5761.61648,2493.97167 5640.64533,2318.41176 5436.7636,2318.41176 C5219.05518,2318.41176 5094.71408,2472.31168 5094.71408,2659.17244 C5094.71408,2800.68106 5162.85637,2947.84011 5282.63813,3088.35742 C5162.90593,3769.13531 4723.07842,4515.8349 4216.84315,4515.8349 C4061.42917,4515.8349 3919.49498,4422.30538 3919.49498,4211.65333 C3919.49498,3777.95791 4311.84589,3207.95823 4311.84589,2799.04541 C4311.84589,2538.82816 4212.72983,2365.35 3902.99215,2365.35 C3035.72664,2365.35 2583.46006,4523.36881 1382.27255,4523.36881 C731.823418,4523.36881 458.263096,4121.34555 458.263096,3698.00926 C458.263096,2565.5438 1672.88084,2352.9587 1672.88084,2352.9587 C1672.88084,2352.9587 1887.76445,2452.08908 2056.95556,2452.08908 C2564.92536,2452.08908 2540.14635,1919.26329 2081.73458,1919.26329 C1865.46334,1919.26329 1639.82563,1989.4476 1639.82563,1989.4476 C1639.82563,1989.4476 1292.91943,1956.43718 1292.91943,1451.02094 C1292.91943,1034.82204 1650.77795,556.220562 2428.64078,556.220562 C3046.57985,556.220562 3100.94501,930.586443 3364.64328,930.586443 C3531.00958,930.586443 3619.61934,781.940438 3513.31737,602.217059 C3395.96395,403.906733 3046.03471,172.685122 2410.65122,172.685122 C800.015266,172.685122 483.488133,1721.00253 1189.69005,2142.30664 C1189.69005,2142.30664 0,2563.61076 0,3714.51447 C0,4391.92192 540.876331,4915.42946 1326.56933,4915.42946 C2837.49452,4915.42946 3453.30259,2749.48022 3816.2656,2749.48022 C4126.00328,2749.48022 3432.19087,3697.41448 3432.19087,4248.82722 C3432.19087,4725.89217 3841.04461,4918.55207 4166.8391,4918.55207 C4945.14795,4918.55207 5457.92488,4113.41512 5661.90573,3406.41725 C5838.28275,3517.64154 6047.8141,3614.73974 6278.45717,3688.69101 C6266.86059,3769.03618 6260.61628,3849.82744 6260.61628,3930.12305 C6260.61628,4492.88621 6616.83939,4925.59032 7310.6518,4925.59032 C8663.18953,4925.59032 9357.00194,2809.20627 9703.90815,2809.20627 C9935.14591,2809.20627 9447.84181,4135.62032 9296.04557,4646.78613 C9230.4803,4867.69818 9281.92153,4894.61208 9413.74589,4894.61208 C9545.6198,4894.61208 9698.10986,4850.74689 9788.55326,4603.41659 C10109.8875,3724.22925 10609.3333,2775.70021 11042.9661,2775.70021 C11174.84,2775.70021 11253.5877,2884.09928 11253.5877,3060.70005 C11253.5877,3353.72945 10922.1932,3896.31959 10922.1932,4303.29936 C10922.1932,4669.63568 11194.7623,4894.61208 11577.7468,4894.61208 C12186.4185,4894.61208 12591.9023,4453.92797 12813.5258,4049.77342 C12833.4977,4512.76186 13157.3099,4894.61208 13691.2481,4894.61208 C14060.2572,4894.61208 14450.6753,4686.33915 14826.8703,4356.18542 C15001.3146,4705.52088 15321.063,4919.39467 15735.5168,4919.39467 C16402.4687,4919.39467 16889.8224,4308.05762 16889.8224,3632.73191 C16889.8224,3500.83894 16872.824,3386.24422 16843.8821,3286.46949 C16925.6033,3317.44773 17013.1723,3337.91816 17104.5573,3337.91816 C17408.5958,3337.91816 17629.5255,3186.29824 17765.2154,2987.4427 C17801.0459,2992.44878 17838.5613,2995.62095 17878.9015,2995.62095 C18191.018,2995.62095 18483.6582,2847.12364 18599.8717,2780.16107 C18456.7977,3218.21822 18046.1599,3737.71098 18046.1599,4264.68808 C18046.1599,4648.8183 18309.4121,4910.07642 18659.4405,4910.07642 C19215.1842,4910.07642 19656.8454,4459.18188 19906.2214,4128.43337 C19923.2198,4518.21403 20205.7997,4894.61208 20716.0987,4894.61208 C21274.9646,4894.61208 21706.615,4406.79148 21931.6581,4065.53515 C21986.717,4461.61058 22352.2075,4888.91208 23035.018,4888.91208 C23446.8948,4888.91208 23816.895,4785.81649 24150.0737,4625.62179 C24364.1148,4809.90517 24663.0488,4926.58163 25047.3218,4926.58163 C26099.3396,4926.58163 26719.9053,4066.42732 26961.5007,3453.05809 C27019.3845,3306.04774 26963.5326,3199.08606 26890.2362,3143.27566" id="Fill-3" fill="url(#linearGradient-3)"></path>
                        </g>
                    </g>
                </g>
            </g>
        </g>
    </g>
</svg>